# xmcd
# Copyright (C) 1995-1998 Ti Kan
#
# Track frame offsets:
#       150
#       5897
#       20370
#       27879
#       36464
#       39402
#       53535
#       57781
#       77610
#       89137
#       98389
#       116683
#       122457
#       140129
#       150504
#       165730
#       179076
#       195180
#       201487
#
# Disc length: 2884 seconds
#
# Revision: 0
# Processed by: cddbd v1.5.2PL0 Copyright (c) Steve Scherf et al.
# Submitted via: CD-Import v1.0
#
DISCID=f90b4213
DTITLE=Kwest - Jonas And His Homemade Retro Futuristic...
DYEAR=09
DGENRE=
TTITLE0=Kwest Represent
TTITLE1=Molton
TTITLE2=Killing
TTITLE3=If I Ever Leave You
TTITLE4=Mahagony Blend
TTITLE5=Hauptsach Degäge
TTITLE6=Good Sun
TTITLE7=Graber
TTITLE8=Welcome To Dollywood
TTITLE9=Schnöd
TTITLE10=Un Neram
TTITLE11=Samtdorn
TTITLE12=Blast
TTITLE13=Space-Base
TTITLE14=Quickie In A Millenium Falcon
TTITLE15=Oh Verweil Nur Du Augenblick
TTITLE16=Nach Der Sintflut Nur Liebe
TTITLE17=Winter
TTITLE18=Poem
EXTD=
EXTT0=
EXTT1=
EXTT2=
EXTT3=
EXTT4=
EXTT5=
EXTT6=
EXTT7=
EXTT8=
EXTT9=
EXTT10=
EXTT11=
EXTT12=
EXTT13=
EXTT14=
EXTT15=
EXTT16=
EXTT17=
EXTT18=
PLAYORDER=
